<svg width="35" height="35" viewBox="0 0 35 35" fill="none" xmlns="http://www.w3.org/2000/svg">
<path fill-rule="evenodd" clip-rule="evenodd" d="M17.9583 2.91675V11.1251L17.9582 11.1795V11.1795C17.9582 11.6036 17.9581 12.0157 18.0038 12.3556C18.0553 12.7388 18.1808 13.1761 18.544 13.5393C18.9073 13.9025 19.3445 14.028 19.7277 14.0796C20.0676 14.1253 20.4798 14.1252 20.9038 14.1251L20.9583 14.1251H29.1666V23.3334C29.1666 27.4582 29.1666 29.5206 27.8852 30.802C26.6038 32.0834 24.5414 32.0834 20.4166 32.0834H14.5833C10.4585 32.0834 8.39607 32.0834 7.11466 30.802C5.83325 29.5206 5.83325 27.4582 5.83325 23.3334V11.6667C5.83325 7.54196 5.83325 5.47956 7.11466 4.19816C8.39607 2.91675 10.4585 2.91675 14.5833 2.91675H17.9583ZM19.9583 2.9175V11.1251C19.9583 11.6248 19.9604 11.8989 19.9859 12.0891L19.9869 12.0964L19.9942 12.0974C20.1844 12.123 20.4586 12.1251 20.9583 12.1251H29.1658C29.1616 11.2544 29.1332 10.7557 28.9446 10.3004C28.7225 9.76438 28.301 9.34288 27.458 8.49987L23.5835 4.62529C22.7405 3.78229 22.319 3.36078 21.783 3.13877C21.3276 2.95016 20.8289 2.92178 19.9583 2.9175Z" fill="#747373"/>
</svg>
