<svg width="52" height="29" viewBox="0 0 52 29" fill="none" xmlns="http://www.w3.org/2000/svg">
<path d="M8.49332 0.96007C7.56624 1.21497 7.12874 1.41105 6.40999 1.90125C5.52457 2.48948 4.88916 3.20517 4.37874 4.15615C1.89957 8.7934 6.21207 14.0483 11.6183 12.9797C13.9933 12.5091 16.0246 10.6758 16.6183 8.46987C16.8162 7.72478 16.8162 6.19536 16.6183 5.39144C16.3579 4.37183 15.7954 3.46987 14.8475 2.57772C13.9412 1.71497 13.0037 1.20517 11.8267 0.920854C10.9829 0.714972 9.29541 0.734579 8.49332 0.96007Z" fill="#B0B0B0"/>
<path d="M39.3786 0.920652C37.1391 1.49908 35.212 3.2932 34.6495 5.34222C34.4411 6.11673 34.4307 7.70497 34.6391 8.46967C34.9203 9.51869 35.5036 10.4599 36.3578 11.2736C38.9203 13.6952 43.0557 13.7344 45.6182 11.3422C46.6078 10.4207 47.1703 9.45006 47.4516 8.18536C47.9932 5.71477 46.9307 3.23438 44.7224 1.81281C43.6078 1.09712 42.7016 0.842221 41.2016 0.803005C40.337 0.783398 39.7745 0.822614 39.3786 0.920652Z" fill="#B0B0B0"/>
<path d="M24.1182 2.40123C23.2016 2.58751 21.8995 3.17574 21.1286 3.76398C18.6495 5.63653 17.837 9.17574 19.2745 11.8522C21.0453 15.1561 25.1911 16.4993 28.7016 14.911C31.6391 13.5777 33.212 10.5777 32.5453 7.5581C31.7536 3.95025 27.9724 1.63653 24.1182 2.40123Z" fill="#B0B0B0"/>
<path d="M7.8683 13.9599C4.1183 14.6069 1.42038 16.3913 0.514133 18.8226C0.3058 19.3814 0.27455 19.6854 0.232883 21.5089C0.191216 23.8226 0.253716 24.2148 0.764133 24.7638C1.44122 25.4893 1.27455 25.4795 7.3683 25.4795H12.8058L13.0975 25.2442C13.3891 25.0089 13.3891 24.9991 13.4516 23.4991C13.5037 22.3226 13.5662 21.8618 13.7433 21.3618C14.3058 19.8226 15.4308 18.4305 16.9621 17.4011C17.785 16.8422 17.9204 16.2246 17.3162 15.705C16.8162 15.2638 15.0037 14.5089 13.6912 14.1952C12.5766 13.9207 12.2641 13.8814 10.5766 13.852C9.23288 13.8324 8.47247 13.8618 7.8683 13.9599Z" fill="#B0B0B0"/>
<path d="M39.2225 13.8814C36.9725 14.1363 33.9829 15.3128 33.6495 16.0677C33.4308 16.5579 33.6079 16.9109 34.2537 17.3618C35.8787 18.4893 36.9516 19.803 37.5141 21.3618C37.6912 21.8618 37.7537 22.3226 37.8058 23.4991C37.8683 24.9991 37.8683 25.0089 38.16 25.2442L38.4516 25.4795H43.8891C49.9829 25.4795 49.8162 25.4893 50.4933 24.7638C51.0037 24.2148 51.0662 23.8226 51.0245 21.5089C50.9829 19.6854 50.9516 19.3716 50.7433 18.8128C49.8475 16.3913 47.0662 14.5677 43.3475 13.9697C42.4516 13.8226 40.1287 13.7736 39.2225 13.8814Z" fill="#B0B0B0"/>
<path d="M23.7016 16.4208C19.1078 17.0777 15.7849 19.2738 15.0557 22.1561C14.8266 23.0679 14.837 26.9993 15.0661 27.5189C15.2641 27.9797 15.6703 28.3816 16.1703 28.6267C16.5453 28.8032 16.9099 28.813 25.6286 28.813C34.3474 28.813 34.712 28.8032 35.087 28.6267C35.587 28.3816 35.9932 27.9797 36.1911 27.5189C36.4203 26.9993 36.4307 23.0679 36.2016 22.1561C35.5557 19.5875 32.7849 17.4993 28.8578 16.6365C28.1807 16.4895 27.5036 16.4404 25.9932 16.411C24.9099 16.3914 23.8786 16.4012 23.7016 16.4208Z" fill="#B0B0B0"/>
</svg>
