<svg width="48" height="43" viewBox="0 0 48 43" fill="none" xmlns="http://www.w3.org/2000/svg">
<path d="M16.4805 0.628716C15.5234 0.784966 12.7891 2.02578 11.1191 3.05519C9.55665 4.02026 8.7461 4.77393 8.53126 5.44489C8.30665 6.14342 8.33595 6.70408 8.61915 7.53129C9.55665 10.1967 8.61915 12.807 6.21681 14.2684C5.45509 14.728 4.77149 14.9669 3.71681 15.1416C1.2754 15.546 0.689462 16.6489 0.591806 21.0699C0.484384 25.7666 1.05079 26.9339 3.67774 27.3567C5.71876 27.6875 7.33009 28.7905 8.22852 30.4633C8.99024 31.8971 9.0586 33.3585 8.42384 35.0772C7.97462 36.3181 7.97462 36.9982 8.4336 37.7978C9.06837 38.91 12.5645 41.0607 15.416 42.1177C16.9981 42.7059 18.3555 42.4761 19.1953 41.4927C20.0156 40.5184 20.8555 39.8383 21.6856 39.4614C22.7012 39.0111 23.2481 38.8916 24.3027 38.8916C26.1484 38.8916 27.877 39.6636 29.0293 41.0055C29.6055 41.6949 30.0938 41.9982 30.8945 42.182C31.4707 42.3199 31.5684 42.3199 32.1738 42.1728C33.9024 41.7776 37.5547 39.7555 39 38.4044C39.9863 37.4761 40.1524 36.6122 39.6348 35.0864C39.0781 33.4596 39.1563 32.1361 39.9082 30.6839C40.7676 29.0294 42.3594 27.9265 44.4297 27.5589C45.3281 27.3934 45.7969 27.182 46.2852 26.7041C47.0664 25.9412 47.3398 24.7647 47.4082 21.8052C47.4473 20.1232 47.4277 19.6361 47.252 18.5515C47.0371 17.1636 46.832 16.6397 46.2949 16.1434C45.8457 15.7114 45.3477 15.4908 44.4395 15.3254C44.0195 15.2427 43.3066 15.0037 42.8477 14.8015C41.3731 14.1306 40.1621 12.7703 39.6641 11.1894C39.3906 10.3254 39.4297 8.91916 39.7617 7.9357C40.1719 6.70408 40.0742 5.75739 39.4688 5.00371C38.9219 4.34195 36.7051 2.85298 34.9375 1.97063C34.4297 1.71328 33.502 1.30886 32.8867 1.06989C31.9199 0.702244 31.666 0.637905 31.0801 0.637905C30.084 0.637905 29.625 0.858494 28.4531 1.93386C26.959 3.29416 25.7481 3.79967 24 3.79967C22.2422 3.79967 21.0313 3.29416 19.5566 1.94305C18.9609 1.39158 18.3945 0.968788 18.1309 0.858494C17.6816 0.674671 16.8906 0.564377 16.4805 0.628716ZM25.9043 14.4522C26.1777 14.5166 26.832 14.7647 27.3691 15.0037C29.0391 15.7666 30.1133 16.7776 30.9336 18.3585C31.5098 19.489 31.7148 20.307 31.7148 21.557C31.7148 24.3787 30.0156 26.8879 27.2715 28.1103C26.1484 28.6067 25.25 28.7905 23.9707 28.7905C21.0313 28.7905 18.4043 27.2556 17.1055 24.7923C16.5195 23.671 16.2852 22.7519 16.2852 21.557C16.2852 20.307 16.4902 19.489 17.0664 18.3585C17.8867 16.7776 18.9609 15.7666 20.6309 15.0037C21.168 14.7647 21.832 14.5166 22.0957 14.4522C23.209 14.1949 24.7715 14.1949 25.9043 14.4522Z" fill="#747373"/>
</svg>
