<svg width="26" height="26" viewBox="0 0 26 26" fill="none" xmlns="http://www.w3.org/2000/svg">
<path fill-rule="evenodd" clip-rule="evenodd" d="M20.9084 0C18.0963 0 15.8168 2.27965 15.8168 5.09168C15.8168 5.33084 15.8333 5.56615 15.8652 5.79653L8.68084 9.38864C7.76034 8.47373 6.49201 7.90839 5.09161 7.90839C2.27954 7.90839 0 10.188 0 13.0001C0 15.8121 2.27954 18.0917 5.09161 18.0917C6.49201 18.0917 7.76034 17.5264 8.68084 16.6115L15.8652 20.2036C15.8333 20.434 15.8168 20.6693 15.8168 20.9085C15.8168 23.7205 18.0963 26.0001 20.9084 26.0001C23.7205 26.0001 26 23.7205 26 20.9085C26 18.0964 23.7205 15.8168 20.9084 15.8168C19.508 15.8168 18.2397 16.3821 17.3192 17.297L10.1348 13.7049C10.1667 13.4745 10.1832 13.2392 10.1832 13.0001C10.1832 12.7609 10.1667 12.5256 10.1348 12.2953L17.3192 8.70313C18.2397 9.61802 19.508 10.1834 20.9084 10.1834C23.7205 10.1834 26 7.90371 26 5.09168C26 2.27965 23.7205 0 20.9084 0Z" fill="#747373"/>
</svg>
