<svg width="60" height="57" viewBox="0 0 60 57" fill="none" xmlns="http://www.w3.org/2000/svg">
<path d="M10.7227 12.6725C9.67968 12.9593 9.1875 13.1799 8.3789 13.7314C7.38281 14.3931 6.66796 15.1983 6.09375 16.2681C3.30468 21.485 8.15625 27.3968 14.2383 26.1946C16.9102 25.6652 19.1953 23.6027 19.8633 21.1211C20.0859 20.2828 20.0859 18.5623 19.8633 17.6578C19.5703 16.5108 18.9375 15.4961 17.8711 14.4924C16.8516 13.5218 15.7969 12.9483 14.4727 12.6284C13.5234 12.3968 11.625 12.4189 10.7227 12.6725Z" fill="#747373"/>
<path d="M45.4687 12.6285C42.9492 13.2792 40.7812 15.2976 40.1484 17.6028C39.9141 18.4741 39.9023 20.2609 40.1367 21.1212C40.4531 22.3013 41.1094 23.3601 42.0703 24.2756C44.9531 26.9998 49.6055 27.0439 52.4883 24.3528C53.6016 23.316 54.2344 22.2241 54.5508 20.8013C55.1601 18.0219 53.9648 15.2314 51.4805 13.6322C50.2266 12.827 49.207 12.5403 47.5195 12.4962C46.5469 12.4741 45.9141 12.5182 45.4687 12.6285Z" fill="#747373"/>
<path d="M28.3008 14.2943C27.2695 14.5038 25.8047 15.1656 24.9375 15.8274C22.1485 17.934 21.2344 21.9156 22.8516 24.9266C24.8438 28.6435 29.5078 30.1546 33.457 28.3678C36.7617 26.8678 38.5313 23.4928 37.7813 20.0958C36.8906 16.0369 32.6367 13.434 28.3008 14.2943Z" fill="#747373"/>
<path d="M10.0195 27.2978C5.8008 28.0257 2.76564 30.0331 1.74611 32.7683C1.51173 33.397 1.47658 33.7389 1.4297 35.7904C1.38283 38.3933 1.45314 38.8345 2.02736 39.4522C2.78908 40.2683 2.60158 40.2573 9.45705 40.2573H15.5742L15.9024 39.9926C16.2305 39.7279 16.2305 39.7169 16.3008 38.0294C16.3594 36.7058 16.4297 36.1875 16.6289 35.625C17.2617 33.8933 18.5274 32.3272 20.25 31.1691C21.1758 30.5404 21.3281 29.8456 20.6485 29.261C20.086 28.7647 18.0469 27.9154 16.5703 27.5625C15.3164 27.2536 14.9649 27.2095 13.0664 27.1764C11.5547 27.1544 10.6992 27.1875 10.0195 27.2978Z" fill="#747373"/>
<path d="M45.293 27.2095C42.7617 27.4963 39.3984 28.8198 39.0234 29.6691C38.7773 30.2206 38.9766 30.6176 39.7031 31.125C41.5312 32.3933 42.7383 33.8713 43.3711 35.625C43.5703 36.1875 43.6406 36.7058 43.6992 38.0294C43.7695 39.7169 43.7695 39.7279 44.0976 39.9926L44.4258 40.2573H50.543C57.3984 40.2573 57.2109 40.2683 57.9726 39.4522C58.5469 38.8345 58.6172 38.3933 58.5703 35.7904C58.5234 33.7389 58.4883 33.386 58.2539 32.7573C57.2461 30.0331 54.1172 27.9816 49.9336 27.3088C48.9258 27.1433 46.3125 27.0882 45.293 27.2095Z" fill="#747373"/>
<path d="M27.8321 30.0661C22.6641 30.8051 18.9258 33.2757 18.1055 36.5184C17.8477 37.5441 17.8594 41.9669 18.1172 42.5514C18.3399 43.0698 18.7969 43.522 19.3594 43.7978C19.7813 43.9963 20.1914 44.0073 30 44.0073C39.8086 44.0073 40.2188 43.9963 40.6407 43.7978C41.2032 43.522 41.6602 43.0698 41.8829 42.5514C42.1407 41.9669 42.1524 37.5441 41.8946 36.5184C41.168 33.6286 38.0508 31.2794 33.6329 30.3088C32.8711 30.1434 32.1094 30.0882 30.4102 30.0551C29.1914 30.0331 28.0313 30.0441 27.8321 30.0661Z" fill="#747373"/>
</svg>
