<svg width="29" height="34" viewBox="0 0 29 34" fill="none" xmlns="http://www.w3.org/2000/svg">
<path d="M9.90425 0.156682C8.92054 0.356579 7.52324 0.987831 6.69604 1.61908C4.03557 3.62857 3.16365 7.42661 4.70628 10.2988C6.60661 13.8443 11.0556 15.2857 14.8228 13.5813C17.9751 12.1505 19.663 8.93109 18.9476 5.69066C18.098 1.81898 14.0403 -0.663946 9.90425 0.156682Z" fill="#747373"/>
<path d="M9.45705 15.2016C4.52736 15.9065 0.96144 18.2632 0.17895 21.3563C-0.0669753 22.3348 -0.0557969 26.5536 0.190129 27.1112C0.402519 27.6057 0.838477 28.0371 1.37504 28.3001C1.77747 28.4895 2.16871 28.5 11.5251 28.5C20.8814 28.5 21.2726 28.4895 21.6751 28.3001C22.2116 28.0371 22.6476 27.6057 22.86 27.1112C23.1059 26.5536 23.1171 22.3348 22.8712 21.3563C22.1781 18.5999 19.2046 16.3589 14.9904 15.4331C14.2638 15.2753 13.5372 15.2227 11.9163 15.1911C10.7537 15.17 9.64708 15.1806 9.45705 15.2016Z" fill="#747373"/>
<circle cx="22" cy="27" r="7" fill="#D9D9D9"/>
<path d="M19 24.25H25" stroke="#747373" stroke-width="1.5" stroke-linecap="round"/>
<path d="M19 27H25" stroke="#747373" stroke-width="1.5" stroke-linecap="round"/>
<path d="M19 29.75H25" stroke="#747373" stroke-width="1.5" stroke-linecap="round"/>
</svg>
