<svg width="28" height="34" viewBox="0 0 28 34" fill="none" xmlns="http://www.w3.org/2000/svg">
<path d="M12.1249 0.292452C10.9869 0.523712 9.37032 1.25401 8.41333 1.9843C5.33544 4.30908 4.32672 8.70303 6.11138 12.0259C8.30987 16.1277 13.4569 17.7952 17.8151 15.8234C21.462 14.1681 23.4148 10.4436 22.5872 6.69471C21.6043 2.21556 16.9099 -0.656933 12.1249 0.292452Z" fill="#B0B0B0"/>
<path d="M11.6075 17.6976C5.90439 18.5131 1.77898 21.2396 0.873714 24.818C0.589203 25.95 0.602136 30.8308 0.886647 31.4759C1.13236 32.0479 1.63672 32.547 2.25747 32.8513C2.72304 33.0703 3.17567 33.0825 14 33.0825C24.8244 33.0825 25.277 33.0703 25.7426 32.8513C26.3633 32.547 26.8677 32.0479 27.1134 31.4759C27.3979 30.8308 27.4108 25.95 27.1263 24.818C26.3245 21.629 22.8845 19.0365 18.009 17.9654C17.1684 17.7828 16.3278 17.722 14.4527 17.6854C13.1077 17.6611 11.8274 17.6733 11.6075 17.6976Z" fill="#B0B0B0"/>
</svg>
