<svg width="47" height="47" viewBox="0 0 47 47" fill="none" xmlns="http://www.w3.org/2000/svg">
<path d="M2 29.0761C2 20.2816 9.1293 13.1523 17.9237 13.1523C26.7182 13.1523 33.8475 20.2816 33.8475 29.0761C33.8475 37.8705 26.7182 44.9998 17.9237 44.9998H2V29.0761Z" stroke="#747373" stroke-width="4"/>
<path fill-rule="evenodd" clip-rule="evenodd" d="M17.0158 11.175C13.8378 11.3336 10.8778 12.3199 8.34692 13.9227C11.524 8.90644 17.1231 5.57617 23.5001 5.57617C33.3991 5.57617 41.4239 13.6009 41.4239 23.4999C41.4239 29.8771 38.0934 35.4764 33.0769 38.6534C34.6798 36.1226 35.6662 33.1626 35.8248 29.9846C36.8459 28.0479 37.4239 25.8414 37.4239 23.4999C37.4239 15.81 31.19 9.57617 23.5001 9.57617C21.1588 9.57617 18.9524 10.1541 17.0158 11.175Z" fill="#747373"/>
<path fill-rule="evenodd" clip-rule="evenodd" d="M22.5922 5.59886C19.4142 5.75741 16.4542 6.74368 13.9233 8.34651C17.1004 3.33027 22.6996 0 29.0765 0C38.9755 0 47.0003 8.02473 47.0003 17.9237C47.0003 24.3009 43.6698 29.9002 38.6533 33.0772C40.2562 30.5464 41.2426 27.5864 41.4012 24.4084C42.4223 22.4718 43.0003 20.2652 43.0003 17.9237C43.0003 10.2339 36.7664 4 29.0765 4C26.7352 4 24.5288 4.57791 22.5922 5.59886Z" fill="#747373"/>
</svg>
