<svg width="29" height="29" viewBox="0 0 29 29" fill="none" xmlns="http://www.w3.org/2000/svg">
<path fill-rule="evenodd" clip-rule="evenodd" d="M14.25 28.5C6.37994 28.5 0 22.1201 0 14.25C0 6.37994 6.37994 0 14.25 0C22.1201 0 28.5 6.37994 28.5 14.25C28.5 22.1201 22.1201 28.5 14.25 28.5ZM14.25 5.91667C13.1454 5.91667 12.25 6.8121 12.25 7.91667C12.25 9.02124 13.1454 9.91667 14.25 9.91667H14.2658C15.3704 9.91667 16.2658 9.02124 16.2658 7.91667C16.2658 6.8121 15.3704 5.91667 14.2658 5.91667H14.25ZM11.875 12.25C10.7704 12.25 9.875 13.1454 9.875 14.25C9.875 15.3546 10.7704 16.25 11.875 16.25H12.25V20.5833C12.25 21.6879 13.1454 22.5833 14.25 22.5833H17.4167C18.5212 22.5833 19.4167 21.6879 19.4167 20.5833C19.4167 19.4788 18.5212 18.5833 17.4167 18.5833H16.25V14.25C16.25 13.1454 15.3546 12.25 14.25 12.25H11.875Z" fill="#747373"/>
</svg>
