<svg width="41" height="32" viewBox="0 0 41 32" fill="none" xmlns="http://www.w3.org/2000/svg">
<path d="M27.5509 0.621184C25.0314 1.27192 22.8634 3.2903 22.2306 5.59545C21.9962 6.46677 21.9845 8.25354 22.2189 9.11383C22.5353 10.294 23.1915 11.3528 24.1525 12.2682C27.0353 14.9925 31.6876 15.0366 34.5704 12.3454C35.6837 11.3087 36.3165 10.2168 36.6329 8.79398C37.2423 6.01457 36.047 3.22412 33.5626 1.62486C32.3087 0.819713 31.2892 0.532948 29.6017 0.488831C28.629 0.466772 27.9962 0.510889 27.5509 0.621184Z" fill="#747373"/>
<path d="M10.383 2.28696C9.3517 2.49652 7.88686 3.15828 7.01967 3.82005C4.23061 5.92666 3.31654 9.90828 4.93373 12.9193C6.92592 16.6362 11.59 18.1473 15.5392 16.3605C18.8439 14.8605 20.6134 11.4855 19.8634 8.08843C18.9728 4.02961 14.7189 1.42666 10.383 2.28696Z" fill="#747373"/>
<path d="M27.375 15.2022C24.8437 15.489 21.4805 16.8125 21.1055 17.6618C20.8594 18.2132 21.0586 18.6103 21.7851 19.1176C23.6133 20.386 24.8203 21.864 25.4531 23.6176C25.6523 24.1801 25.7226 24.6985 25.7812 26.0221C25.8516 27.7096 25.8516 27.7206 26.1797 27.9853L26.5078 28.25H32.625C39.4805 28.25 39.293 28.261 40.0547 27.4448C40.6289 26.8272 40.6992 26.386 40.6523 23.7831C40.6055 21.7316 40.5703 21.3787 40.3359 20.75C39.3281 18.0257 36.1992 15.9743 32.0156 15.3015C31.0078 15.136 28.3945 15.0809 27.375 15.2022Z" fill="#747373"/>
<path d="M9.91416 18.0588C4.74619 18.7978 1.00791 21.2684 0.1876 24.511C-0.0702126 25.5368 -0.0584939 29.9596 0.199319 30.5441C0.421975 31.0625 0.879006 31.5147 1.44151 31.7904C1.86338 31.989 2.27354 32 12.0821 32C21.8907 32 22.3009 31.989 22.7228 31.7904C23.2853 31.5147 23.7423 31.0625 23.9649 30.5441C24.2228 29.9596 24.2345 25.5368 23.9767 24.511C23.2501 21.6213 20.1329 19.2721 15.7149 18.3015C14.9532 18.136 14.1915 18.0809 12.4923 18.0478C11.2735 18.0257 10.1134 18.0368 9.91416 18.0588Z" fill="#747373"/>
</svg>
