<svg width="41" height="39" viewBox="0 0 41 39" fill="none" xmlns="http://www.w3.org/2000/svg">
<path d="M20.6602 0.112988C20.548 0.14502 20.3479 0.233105 20.2197 0.305176C19.8994 0.473339 3.09102 17.3218 2.62656 17.9384C0.872852 20.2687 0 22.8952 0 25.8661C0 28.9251 0.912891 31.5837 2.7627 33.954C4.80469 36.5646 7.76758 38.2702 11.1709 38.8067C11.9877 38.9349 14.1018 38.9349 14.9346 38.8067C17.1367 38.4624 19.0826 37.6616 20.8844 36.3483C21.6691 35.7798 38.4936 18.9954 39.1422 18.1386C39.999 17.0175 40.6396 15.5521 40.8799 14.1827C41.032 13.2778 41.032 11.7163 40.8799 10.8194C40.3033 7.5042 37.7889 4.61338 34.6018 3.6124C33.4486 3.25205 32.6078 3.13994 31.3105 3.18799C29.2525 3.26807 27.643 3.83662 25.9854 5.06982C25.3848 5.51826 10.6504 20.2126 10.0098 20.9974C9.13691 22.0784 8.77656 23.1114 8.77656 24.5448C8.77656 25.6019 8.90469 26.1944 9.33711 27.0673C10.8025 30.0622 14.6463 31.0792 17.4971 29.2294C18.1617 28.805 28.1875 18.7792 28.3957 18.3388C28.6039 17.8903 28.5879 17.0815 28.3717 16.6571C28.0273 16.0085 27.4428 15.6481 26.7061 15.6401C25.8412 15.6321 26.0654 15.4319 20.54 20.9413C17.7213 23.7521 15.2869 26.1144 15.1348 26.1944C14.5102 26.5147 13.5652 26.3306 13.0367 25.77C12.5643 25.2735 12.4281 24.4087 12.7324 23.7921C12.8365 23.5679 15.383 20.9733 20.6361 15.7362C28.9482 7.44814 28.7641 7.6083 29.9492 7.23994C32.0473 6.59131 34.0012 7.06377 35.5627 8.60928C36.1473 9.18584 36.3074 9.41006 36.6197 10.0507C37.6688 12.2048 37.3484 14.4149 35.7068 16.2808C35.3705 16.6651 31.4787 20.581 27.0584 24.9933C19.7393 32.2884 18.9465 33.0571 18.2178 33.5376C17.2969 34.1382 16.1838 34.6347 15.2148 34.8749C14.342 35.0911 12.6764 35.1712 11.7715 35.0431C7.66348 34.4425 4.50039 31.2874 3.87578 27.1874C3.73164 26.2265 3.73164 25.5058 3.87578 24.5448C4.1 23.0634 4.74863 21.4938 5.62148 20.3247C5.8457 20.0284 9.78555 16.0165 14.374 11.412C18.9705 6.80752 22.7902 2.91572 22.8703 2.76358C23.0705 2.3792 23.0705 1.53838 22.8703 1.16201C22.6621 0.76963 22.3578 0.457325 21.9895 0.265137C21.6451 0.0889664 20.9645 0.00888824 20.6602 0.112988Z" fill="#7F7F7F"/>
</svg>
