<svg width="62" height="46" viewBox="0 0 62 46" fill="none" xmlns="http://www.w3.org/2000/svg">
<path d="M25.4629 0.808497C24.1094 1.51231 23.4414 2.6736 23.4414 4.30996C23.4414 6.12228 24.373 7.49471 25.8672 7.917C26.7988 8.16334 57.7363 8.16334 58.6855 7.89941C61.3574 7.1604 61.9199 3.00791 59.5996 1.1604L58.9141 0.614948L42.4609 0.562162C27.7832 0.526972 25.9375 0.562162 25.4629 0.808497Z" fill="#7F7F7F"/>
<path d="M3.38477 19.4244C1.67969 20.0402 1.0293 21.0256 1.0293 23.049C1.0293 24.7382 1.43359 25.5652 2.61133 26.3042L3.45508 26.832H31H58.5449L59.3887 26.3042C60.5664 25.5652 60.9707 24.7382 60.9707 23.049C60.9707 21.3599 60.5664 20.5329 59.3887 19.7939L58.5449 19.266L31.2812 19.2309C9.29102 19.1957 3.89453 19.2309 3.38477 19.4244Z" fill="#7F7F7F"/>
<path d="M3.17375 38.2688C0.554605 39.2013 0.115152 43.1075 2.40031 44.9374L3.08586 45.4829L19.5038 45.5357C35.3945 45.5708 35.9394 45.5708 36.5898 45.2365C37.9081 44.5503 38.5585 43.4066 38.5585 41.7527C38.5409 39.9755 37.6093 38.6031 36.1327 38.1808C35.7109 38.0752 30.0331 38.0049 19.662 38.0049C6.72453 38.0225 3.71867 38.0576 3.17375 38.2688Z" fill="#7F7F7F"/>
</svg>
