<svg width="30" height="27" viewBox="0 0 30 27" fill="none" xmlns="http://www.w3.org/2000/svg">
<path d="M10.183 0.0118595C9.57009 0.111922 7.81898 0.906539 6.74956 1.56578C5.74893 2.18381 5.22986 2.66647 5.09227 3.09615C4.94843 3.54349 4.96719 3.90254 5.14856 4.43228C5.74893 6.13924 5.14856 7.81088 3.61009 8.74676C3.12228 9.04106 2.68451 9.1941 2.00908 9.30593C0.445598 9.56492 0.0703625 10.2712 0.00782321 13.1024C-0.06097 16.1102 0.301758 16.8577 1.98407 17.1285C3.29114 17.3404 4.32304 18.0467 4.8984 19.118C5.3862 20.0362 5.42998 20.9721 5.02348 22.0728C4.7358 22.8674 4.7358 23.303 5.02973 23.8151C5.43624 24.5273 7.67514 25.9046 9.50129 26.5815C10.5144 26.9582 11.3837 26.8111 11.9216 26.1812C12.4469 25.5573 12.9847 25.1218 13.5163 24.8804C14.1667 24.592 14.5169 24.5155 15.1924 24.5155C16.3744 24.5155 17.4813 25.0099 18.2193 25.8693C18.5883 26.3107 18.901 26.505 19.4138 26.6227C19.7828 26.711 19.8453 26.711 20.233 26.6168C21.34 26.3637 23.679 25.0688 24.6045 24.2035C25.2362 23.609 25.3425 23.0558 25.011 22.0787C24.6546 21.0368 24.7046 20.1892 25.1862 19.2592C25.7365 18.1998 26.7559 17.4934 28.0817 17.258C28.6571 17.152 28.9573 17.0167 29.27 16.7106C29.7703 16.222 29.9454 15.4686 29.9892 13.5733C30.0142 12.4962 30.0017 12.1842 29.8891 11.4897C29.7515 10.6009 29.6202 10.2654 29.2762 9.94751C28.9885 9.67087 28.6696 9.5296 28.088 9.42365C27.8191 9.37068 27.3625 9.21764 27.0686 9.08815C26.1242 8.65847 25.3488 7.78733 25.0298 6.77493C24.8547 6.22164 24.8797 5.32108 25.0923 4.69127C25.355 3.90254 25.2925 3.29627 24.9047 2.81362C24.5545 2.38982 23.1349 1.43628 22.0029 0.871223C21.6777 0.706414 21.0836 0.447427 20.6896 0.29439C20.0704 0.0589479 19.9078 0.0177456 19.5326 0.0177456C18.8947 0.0177456 18.6008 0.159011 17.8503 0.847679C16.8934 1.71881 16.118 2.04255 14.9985 2.04255C13.8728 2.04255 13.0973 1.71881 12.153 0.853565C11.7715 0.500402 11.4087 0.229643 11.2399 0.159011C10.9522 0.0412898 10.4456 -0.0293428 10.183 0.0118595ZM16.218 8.86448C16.3931 8.90568 16.8121 9.06461 17.1561 9.21764C18.2255 9.70619 18.9135 10.3537 19.4388 11.3661C19.8078 12.09 19.9391 12.6139 19.9391 13.4144C19.9391 15.2214 18.8509 16.8283 17.0936 17.6112C16.3744 17.929 15.799 18.0467 14.9797 18.0467C13.0973 18.0467 11.415 17.0638 10.5832 15.4863C10.208 14.7682 10.0579 14.1796 10.0579 13.4144C10.0579 12.6139 10.1892 12.09 10.5582 11.3661C11.0835 10.3537 11.7715 9.70619 12.8409 9.21764C13.1849 9.06461 13.6101 8.90568 13.779 8.86448C14.4919 8.69967 15.4926 8.69967 16.218 8.86448Z" fill="#747373"/>
</svg>
