<svg width="41" height="41" viewBox="0 0 41 41" fill="none" xmlns="http://www.w3.org/2000/svg">
<path d="M36.8326 15.2694L9.41595 1.54769C8.33396 1.00864 7.1122 0.81673 5.91726 0.998133C4.72232 1.17954 3.61235 1.72542 2.73868 2.56136C1.86502 3.3973 1.27017 4.48261 1.03525 5.66932C0.800328 6.85603 0.936763 8.08639 1.42595 9.19265L6.12595 19.7192C6.23259 19.9737 6.28752 20.2469 6.28752 20.5229C6.28752 20.7989 6.23259 21.0721 6.12595 21.3266L1.42595 31.8531C1.02782 32.7484 0.859515 33.729 0.936323 34.706C1.01313 35.6829 1.33262 36.6252 1.86576 37.4471C2.39889 38.269 3.12877 38.9445 3.98906 39.4123C4.84935 39.88 5.81278 40.1251 6.79178 40.1254C7.70874 40.1162 8.61203 39.9019 9.43553 39.4981L36.8522 25.7763C37.8247 25.2866 38.6422 24.5361 39.2133 23.6085C39.7845 22.6808 40.087 21.6126 40.087 20.5229C40.087 19.4332 39.7845 18.3649 39.2133 17.4373C38.6422 16.5097 37.8247 15.7591 36.8522 15.2694H36.8326ZM35.0897 22.2675L7.67303 35.9892C7.31302 36.1623 6.90876 36.221 6.51446 36.1575C6.12016 36.094 5.75467 35.9114 5.467 35.6341C5.17933 35.3569 4.98323 34.9982 4.90499 34.6061C4.82675 34.2141 4.87012 33.8075 5.02928 33.4409L9.7097 22.9144C9.77029 22.7738 9.8226 22.6298 9.86637 22.4831H23.3593C23.8787 22.4831 24.3768 22.2766 24.744 21.909C25.1113 21.5414 25.3176 21.0428 25.3176 20.5229C25.3176 20.003 25.1113 19.5044 24.744 19.1368C24.3768 18.7692 23.8787 18.5626 23.3593 18.5626H9.86637C9.8226 18.4159 9.77029 18.2719 9.7097 18.1314L5.02928 7.60485C4.87012 7.23821 4.82675 6.83163 4.90499 6.43962C4.98323 6.04761 5.17933 5.68891 5.467 5.41162C5.75467 5.13434 6.12016 4.95171 6.51446 4.88825C6.90876 4.82478 7.31302 4.8835 7.67303 5.05653L35.0897 18.7783C35.4105 18.9428 35.6797 19.1927 35.8677 19.5005C36.0556 19.8083 36.1551 20.1621 36.1551 20.5229C36.1551 20.8837 36.0556 21.2374 35.8677 21.5453C35.6797 21.8531 35.4105 22.103 35.0897 22.2675Z" fill="#7F7F7F"/>
</svg>
