<svg width="29" height="29" viewBox="0 0 29 29" fill="none" xmlns="http://www.w3.org/2000/svg">
<path fill-rule="evenodd" clip-rule="evenodd" d="M28.5 14.25C28.5 22.1201 22.1201 28.5 14.25 28.5C6.37994 28.5 0 22.1201 0 14.25C0 6.37994 6.37994 0 14.25 0C22.1201 0 28.5 6.37994 28.5 14.25ZM6.73579 21.2643C5.95474 20.4833 5.95474 19.2169 6.73579 18.4359L11.1717 14L7.12218 9.95051C6.34113 9.16946 6.34113 7.90313 7.12218 7.12208C7.90322 6.34103 9.16955 6.34103 9.9506 7.12208L14.0001 11.1716L18.0495 7.12218C18.8305 6.34113 20.0969 6.34113 20.8779 7.12218C21.659 7.90322 21.659 9.16955 20.8779 9.9506L16.8285 14L21.2643 18.4358C22.0454 19.2168 22.0454 20.4832 21.2643 21.2642C20.4833 22.0453 19.2169 22.0453 18.4359 21.2642L14.0001 16.8284L9.56421 21.2643C8.78316 22.0454 7.51683 22.0454 6.73579 21.2643Z" fill="#747373"/>
</svg>
